Coordinates
version=1
nRows=38
nColumns=12
inDegrees=yes

Units are S.I. units (second, meters, Newtons, ...)
Angles are in degrees

endheader
time	SC_y	SC_z	SC_x	AC_y	AC_z	AC_x	GH_y	GH_z	GH_yy	EL_x	PS_y
       0.0              -19.13           37.0          84.16          54.63         -11.76          19.15          38.95          56.84         -103.1          118.7          117.1
   0.04149              -19.13           37.0          84.15          54.63         -11.76          19.15          38.93          56.83         -103.0          118.6          117.0
   0.08297              -19.14           37.0          84.14          54.63         -11.76          19.15           38.9          56.83         -103.0          118.6          117.0
    0.1245              -19.14           37.0          84.13          54.62         -11.77          19.15          38.86          56.83         -103.0          118.6          117.0
    0.1659              -19.14           37.0          84.12          54.62         -11.77          19.15          38.83          56.83         -102.9          118.6          117.0
    0.2074              -19.14           37.0          84.11          54.62         -11.77          19.15          38.79          56.83         -102.9          118.6          117.0
    0.2489              -19.14           37.0           84.1          54.62         -11.77          19.15          38.76          56.82         -102.8          118.6          117.0
    0.2904              -19.14           37.0          84.08          54.62         -11.77          19.15          38.71          56.82         -102.7          118.6          116.9
    0.3319              -19.14           37.0          84.07          54.62         -11.77          19.15          38.67          56.82         -102.7          118.6          116.9
    0.3734              -19.15           37.0          84.05          54.61         -11.77          19.15          38.62          56.82         -102.6          118.6          116.9
    0.4149              -19.15           37.0          84.03          54.61         -11.78          19.15          38.57          56.81         -102.5          118.6          116.9
    0.4564              -19.15           37.0          84.02          54.61         -11.78          19.15          38.52          56.81         -102.5          118.5          116.8
    0.4978              -19.15           37.0           84.0          54.61         -11.78          19.15          38.46          56.81         -102.4          118.5          116.8
    0.5393              -19.15           37.0          83.97           54.6         -11.78          19.15          38.39          56.81         -102.3          118.5          116.8
    0.5808              -19.16           37.0          83.95           54.6         -11.79          19.15          38.33           56.8         -102.2          118.5          116.7
    0.6223              -19.16           37.0          83.93           54.6         -11.79          19.15          38.25           56.8         -102.1          118.5          116.7
    0.6638              -19.16           37.0           83.9          54.59         -11.79          19.15          38.17          56.79         -102.0          118.5          116.7
    0.7053              -19.17           37.0          83.87          54.59         -11.79          19.15          38.08          56.79         -101.8          118.4          116.6
    0.7468              -19.17           37.0          83.83          54.59          -11.8          19.15          37.98          56.78         -101.7          118.4          116.6
    0.7883              -19.17           37.0           83.8          54.58          -11.8          19.15          37.88          56.78         -101.6          118.4          116.5
    0.8297              -19.18           37.0          83.76          54.58         -11.81          19.15          37.76          56.77         -101.4          118.3          116.4
    0.8712              -19.18           37.0          83.72          54.57         -11.81          19.15          37.63          56.76         -101.2          118.3          116.4
    0.9127              -19.19           37.0          83.67          54.57         -11.82          19.15          37.49          56.76         -101.0          118.3          116.3
    0.9542              -19.19           37.0          83.61          54.56         -11.82          19.15          37.34          56.75         -100.8          118.2          116.2
    0.9957               -19.2           37.0          83.56          54.55         -11.83          19.15          37.16          56.74         -100.6          118.2          116.1
     1.037              -19.21           37.0          83.49          54.54         -11.84          19.15          36.97          56.73         -100.3          118.1          116.0
     1.079              -19.22           37.0          83.42          54.53         -11.84          19.15          36.75          56.72         -99.97          118.1          115.9
      1.12              -19.22           37.0          83.33          54.52         -11.85          19.15           36.5           56.7         -99.63          118.0          115.8
     1.162              -19.23          37.01          83.24          54.51         -11.86          19.14          36.23          56.69         -99.24          118.0          115.6
     1.203              -19.25          37.01          83.13           54.5         -11.87          19.14          35.91          56.67          -98.8          117.9          115.5
     1.245              -19.26          37.01          83.01          54.48         -11.89          19.14          35.55          56.65         -98.29          117.8          115.3
     1.286              -19.27          37.01          82.87          54.46          -11.9          19.14          35.14          56.63         -97.71          117.7          115.1
     1.328              -19.29          37.01          82.71          54.44         -11.92          19.14          34.67          56.61         -97.05          117.6          114.8
     1.369              -19.31          37.01          82.52          54.42         -11.94          19.14          34.12          56.58         -96.27          117.4          114.5
     1.411              -19.34          37.02           82.3          54.39         -11.96          19.14          33.47          56.54         -95.36          117.3          114.2
     1.452              -19.37          37.02          82.04          54.36         -11.99          19.13          32.71           56.5         -94.29          117.1          113.8
     1.494               -19.4          37.02          81.73          54.32         -12.02          19.13           31.8          56.45         -93.01          116.8          113.3
     1.535              -19.44          37.03          81.37          54.27         -12.06          19.13          30.72          56.39         -91.48          116.6          112.8
